HIERARCHY
ROOT Hips
{
 OFFSET 0.000000 0.000000 0.000000
 CHANNELS 6 Xposition Yposition Zposition Yrotation Xrotation Zrotation
 JOINT Chest
 {
  OFFSET 0.000000 10.385163 0.011643
  CHANNELS 3 Yrotation Xrotation Zrotation
  JOINT Chest2
  {
   OFFSET 0.000000 11.579334 -0.021150
   CHANNELS 3 Yrotation Xrotation Zrotation
   JOINT Chest3
   {
    OFFSET 0.000000 10.463212 0.000000
    CHANNELS 3 Yrotation Xrotation Zrotation
    JOINT Chest4
    {
     OFFSET 0.000000 10.463212 0.000000
     CHANNELS 3 Yrotation Xrotation Zrotation
     JOINT Neck
     {
      OFFSET 0.000000 14.544862 0.000000
      CHANNELS 3 Yrotation Xrotation Zrotation
      JOINT Head
      {
       OFFSET 0.000000 9.730630 -0.050295
       CHANNELS 3 Yrotation Xrotation Zrotation
       End Site
       {
        OFFSET 0.000000 18.757589 -0.026270
       }
      }
     }
     JOINT RightCollar
     {
      OFFSET -2.985174 8.102313 0.000000
      CHANNELS 3 Yrotation Xrotation Zrotation
      JOINT RightShoulder
      {
       OFFSET -13.558590 0.000000 0.000000
       CHANNELS 3 Yrotation Xrotation Zrotation
       JOINT RightElbow
       {
        OFFSET -28.208579 0.000000 0.000000
        CHANNELS 3 Yrotation Xrotation Zrotation
        JOINT RightWrist
        {
         OFFSET -23.322907 0.000000 0.010349
         CHANNELS 3 Yrotation Xrotation Zrotation
         End Site
         {
          OFFSET -17.603338 0.000000 0.000000
         }
        }
       }
      }
     }
     JOINT LeftCollar
     {
      OFFSET 2.985174 8.102313 0.000000
      CHANNELS 3 Yrotation Xrotation Zrotation
      JOINT LeftShoulder
      {
       OFFSET 13.558590 0.000000 0.000000
       CHANNELS 3 Yrotation Xrotation Zrotation
       JOINT LeftElbow
       {
        OFFSET 28.208579 0.000000 0.000000
        CHANNELS 3 Yrotation Xrotation Zrotation
        JOINT LeftWrist
        {
         OFFSET 23.322907 0.000000 0.010349
         CHANNELS 3 Yrotation Xrotation Zrotation
         End Site
         {
          OFFSET 17.603338 0.000000 0.000000
         }
        }
       }
      }
     }
    }
   }
  }
 }
 JOINT RightHip
 {
  OFFSET -8.341224 -0.057053 -0.005822
  CHANNELS 3 Yrotation Xrotation Zrotation
  JOINT RightKnee
  {
   OFFSET 0.000000 -44.280013 0.005508
   CHANNELS 3 Yrotation Xrotation Zrotation
   JOINT RightAnkle
   {
    OFFSET 0.000000 -43.261728 0.009315
    CHANNELS 3 Yrotation Xrotation Zrotation
    JOINT RightToe
    {
     OFFSET 0.000000 -8.082955 18.257715
     CHANNELS 3 Yrotation Xrotation Zrotation
     End Site
     {
      OFFSET 0.000000 -1.634678 7.189621
     }
    }
   }
  }
 }
 JOINT LeftHip
 {
  OFFSET 8.341224 -0.057053 -0.005822
  CHANNELS 3 Yrotation Xrotation Zrotation
  JOINT LeftKnee
  {
   OFFSET 0.000000 -44.280013 0.005508
   CHANNELS 3 Yrotation Xrotation Zrotation
   JOINT LeftAnkle
   {
    OFFSET 0.000000 -43.261728 0.009315
    CHANNELS 3 Yrotation Xrotation Zrotation
    JOINT LeftToe
    {
     OFFSET 0.000000 -8.082955 18.257715
     CHANNELS 3 Yrotation Xrotation Zrotation
     End Site
     {
      OFFSET 0.000000 -1.634678 7.189621
     }
    }
   }
  }
 }
}
MOTION
Frames: 15
Frame Time: 0.016667
0.000000 95.489079 0.000000 0.000000 -5.826342 0.000000 0.000000 11.116423 0.000000 0.000000 -5.290081 0.000000 0.000000 0.000000 0.000000 0.000000 0.000000 0.000000 0.000000 12.665069 0.000000 0.000000 0.575450 0.000000 0.000000 0.000000 0.000000 0.000000 0.000000 0.000000 2.337306 0.000000 0.000000 -2.337306 0.000000 0.000000 0.000000 0.000000 0.000000 0.000000 0.000000 0.000000 -2.337306 0.000000 0.000000 2.337306 0.000000 0.000000 0.000000 8.578828 0.000000 0.000000 1.905768 0.000000 0.000000 -4.658254 0.000000 0.000000 0.000000 0.000000 0.000000 8.578828 0.000000 0.000000 1.905768 0.000000 0.000000 -4.658254 0.000000 0.000000 0.000000 0.000000
-190.260512 97.447198 -293.070833 24.884827 -21.863763 -0.481536 -1.077758 11.940308 2.984232 -0.553509 5.299843 1.346760 -0.553517 5.299843 1.346757 -0.426557 3.973690 1.014158 -4.178868 14.127322 -1.085943 -7.445780 -9.901323 -0.405715 1.378365 -2.887271 3.542651 0.544736 -13.783195 76.992507 -5.339589 25.849614 -6.042138 2.920312 2.013325 0.004129 -2.060969 -4.930179 -13.716988 2.574323 -7.588309 -76.647922 -1.544709 19.843141 1.845404 2.283344 -0.457801 -2.053998 -2.874419 25.717874 -0.346856 0.904452 -0.478835 0.273866 -6.348967 -4.894467 3.130488 0.000000 0.000000 0.000000 7.865903 26.604490 6.279292 -0.867858 -2.139127 0.276186 3.551253 -4.177491 -4.664528 0.000000 -0.000000 0.000000
-190.246647 97.446236 -293.047172 24.788817 -21.790439 -0.466784 -1.072677 11.886499 2.959130 -0.550296 5.276019 1.335473 -0.550308 5.276019 1.335468 -0.424007 3.955839 1.005653 -4.055096 14.087940 -1.102704 -7.207408 -9.979754 -0.483643 1.370299 -2.905328 3.587359 0.514215 -13.783553 77.009550 -5.421731 25.767213 -6.141167 2.913163 2.011640 -0.025398 -2.068835 -4.920862 -13.691005 2.614603 -7.535654 -76.668876 -1.520974 19.861809 1.837990 2.286123 -0.445876 -2.083223 -2.801927 25.639893 -0.350544 0.955546 -0.449622 0.338653 -6.371655 -4.933091 3.090449 0.000000 0.000000 0.000000 7.857674 26.541066 6.223623 -0.800868 -2.109627 0.330172 3.578990 -4.201135 -4.695453 0.000000 -0.000000 -0.000000
-190.232783 97.445274 -293.023511 24.692876 -21.717092 -0.452172 -1.067611 11.832651 2.934099 -0.547091 5.252177 1.324220 -0.547103 5.252177 1.324216 -0.421458 3.937974 0.997177 -3.931294 14.048491 -1.119354 -6.968859 -10.058015 -0.561538 1.362161 -2.923309 3.632092 0.483681 -13.783877 77.026557 -5.503538 25.684765 -6.240176 2.906115 2.009937 -0.054945 -2.076714 -4.911500 -13.665042 2.654896 -7.483033 -76.689863 -1.497238 19.880458 1.830561 2.288870 -0.433943 -2.112448 -2.729502 25.561879 -0.354310 1.006677 -0.420455 0.403457 -6.394310 -4.971731 3.050419 0.000000 -0.000000 -0.000000 7.849479 26.477555 6.168081 -0.733836 -2.080129 0.384142 3.606739 -4.224762 -4.726394 0.000000 0.000000 0.000000
-190.219927 97.444257 -293.001493 24.601466 -21.643757 -0.438176 -1.062500 11.779677 2.909937 -0.543894 5.228721 1.313352 -0.543903 5.228721 1.313349 -0.418916 3.920398 0.988991 -3.813184 14.011076 -1.134509 -6.741409 -10.131967 -0.634645 1.354145 -2.939089 3.675888 0.454320 -13.783268 77.044208 -5.578990 25.609184 -6.331104 2.899313 2.008463 -0.082469 -2.084136 -4.901085 -13.639865 2.692038 -7.433608 -76.710772 -1.473863 19.897323 1.824336 2.291409 -0.422519 -2.140158 -2.660741 25.483303 -0.358719 1.056555 -0.391931 0.465967 -6.416610 -5.008774 3.012038 -0.000000 0.000000 -0.000000 7.840660 26.412942 6.113584 -0.669684 -2.050991 0.436698 3.633576 -4.247492 -4.756380 0.000000 0.000000 -0.000000
-190.209090 97.443131 -292.982762 24.519042 -21.570473 -0.425258 -1.057284 11.728500 2.887430 -0.540706 5.206060 1.303216 -0.540710 5.206060 1.303214 -0.416387 3.903418 0.981354 -3.706497 13.977805 -1.146803 -6.536371 -10.197512 -0.698211 1.346455 -2.950549 3.717779 0.427323 -13.780826 77.063190 -5.642156 25.547396 -6.405900 2.892876 2.007473 -0.105925 -2.090623 -4.888618 -13.616236 2.722859 -7.390537 -76.731486 -1.451213 19.910637 1.820538 2.293575 -0.412118 -2.164842 -2.599233 25.403638 -0.364326 1.103883 -0.364640 0.523872 -6.438242 -5.042601 2.976946 -0.000000 -0.000000 0.000000 7.830566 26.346225 6.061051 -0.611341 -2.022568 0.486447 3.658577 -4.268447 -4.784437 0.000000 0.000000 0.000000
-190.201280 97.441842 -292.968960 24.450053 -21.497281 -0.413868 -1.051902 11.680044 2.867355 -0.537527 5.184603 1.294153 -0.537527 5.184603 1.294153 -0.413877 3.887340 0.974523 -3.616971 13.950794 -1.154886 -6.365086 -10.250582 -0.747484 1.339309 -2.955584 3.756792 0.403880 -13.775655 77.084193 -5.687165 25.506330 -6.456520 2.886908 2.007224 -0.123267 -2.095695 -4.873105 -13.594918 2.744192 -7.356974 -76.751886 -1.429652 19.918633 1.820389 2.295205 -0.403256 -2.184985 -2.548561 25.322364 -0.371680 1.147361 -0.339171 0.574860 -6.458897 -5.071593 2.946780 0.000000 0.000000 0.000000 7.818547 26.276407 6.011396 -0.561736 -1.995218 0.531997 3.680816 -4.286750 -4.809591 0.000000 -0.000000 0.000000
-190.195578 97.438498 -292.958028 24.358290 -21.349481 -0.395529 -1.041452 11.590356 2.834624 -0.531555 5.144881 1.279321 -0.531551 5.144881 1.279322 -0.409190 3.857573 0.963332 -3.494203 13.917795 -1.157728 -6.133263 -10.315331 -0.799854 1.326737 -2.943606 3.825390 0.367762 -13.756798 77.130301 -5.716580 25.494520 -6.477604 2.876443 2.009307 -0.136928 -2.101630 -4.830726 -13.558786 2.755959 -7.321055 -76.792453 -1.389154 19.919696 1.832695 2.297731 -0.389065 -2.212085 -2.486481 25.152222 -0.394955 1.223189 -0.293134 0.655245 -6.497427 -5.114323 2.902414 0.000000 -0.000000 0.000000 7.784457 26.123687 5.917520 -0.490529 -1.941318 0.612436 3.716197 -4.315640 -4.851441 0.000000 -0.000000 0.000000
-190.197949 97.434718 -292.960242 24.302293 -21.201960 -0.381115 -1.030559 11.507987 2.808251 -0.525609 5.108398 1.267295 -0.525607 5.108398 1.267295 -0.404562 3.830233 0.954245 -3.417256 13.901570 -1.149514 -5.991780 -10.347170 -0.814125 1.315771 -2.914598 3.886249 0.341172 -13.730688 77.181839 -5.698208 25.538063 -6.434228 2.867040 2.013384 -0.134246 -2.103720 -4.780296 -13.528797 2.742384 -7.310442 -76.832113 -1.351580 19.906570 1.854729 2.298889 -0.378988 -2.227075 -2.453187 24.977839 -0.422744 1.288709 -0.251930 0.717202 -6.533401 -5.144138 2.871174 -0.000000 0.000000 -0.000000 7.745367 25.962769 5.831398 -0.442654 -1.890269 0.681707 3.744201 -4.337476 -4.885529 0.000000 0.000000 0.000000
-190.201848 97.431545 -292.963388 24.246315 -21.059729 -0.368798 -1.017009 11.432233 2.784420 -0.518598 5.074864 1.256336 -0.518598 5.074864 1.256336 -0.399152 3.805105 0.945952 -3.348942 13.887176 -1.138225 -5.867733 -10.375214 -0.819295 1.305650 -2.885605 3.945472 0.319120 -13.701974 77.242058 -5.675773 25.585024 -6.381585 2.857559 2.017426 -0.131354 -2.103642 -4.732630 -13.503130 2.723349 -7.304325 -76.869049 -1.317447 19.883286 1.876648 2.296877 -0.374250 -2.234706 -2.413848 24.809746 -0.442603 1.347708 -0.214755 0.772478 -6.567753 -5.169694 2.842903 0.000000 0.000000 0.000000 7.716754 25.809293 5.758763 -0.401184 -1.847879 0.739654 3.770913 -4.355106 -4.914944 0.000000 -0.000000 0.000000
-190.205087 97.429353 -292.963192 24.178717 -20.925838 -0.357765 -0.999071 11.363567 2.761315 -0.509707 5.044503 1.245602 -0.509706 5.044503 1.245602 -0.392339 3.782361 0.937815 -3.278963 13.870374 -1.124892 -5.741384 -10.407634 -0.821186 1.293958 -2.861397 4.005698 0.299573 -13.672868 77.314640 -5.666633 25.617774 -6.339678 2.847709 2.020952 -0.134722 -2.103184 -4.689756 -13.481435 2.702853 -7.296756 -76.902328 -1.287637 19.843666 1.896167 2.289342 -0.378138 -2.232928 -2.356403 24.653038 -0.450573 1.401085 -0.181490 0.825146 -6.601303 -5.193966 2.813860 0.000000 -0.000000 -0.000000 7.707676 25.669949 5.704251 -0.362969 -1.816893 0.784099 3.797141 -4.368734 -4.939846 0.000000 0.000000 0.000000
-190.209854 97.427769 -292.963929 24.111121 -20.797240 -0.348830 -0.978482 11.301513 2.740721 -0.499749 5.017089 1.235924 -0.499749 5.017089 1.235924 -0.384743 3.761829 0.930462 -3.217625 13.855416 -1.108521 -5.632486 -10.436279 -0.814033 1.283127 -2.837213 4.064299 0.284607 -13.641142 77.395903 -5.653444 25.653953 -6.288529 2.837781 2.024433 -0.137876 -2.100565 -4.649660 -13.464045 2.676895 -7.293666 -76.932868 -1.261333 19.793903 1.915543 2.278625 -0.387362 -2.223798 -2.292996 24.502616 -0.450745 1.447919 -0.152217 0.871110 -6.633238 -5.213977 2.787784 -0.000000 0.000000 -0.000000 7.708913 25.538129 5.662978 -0.331211 -1.794561 0.817220 3.822068 -4.378164 -4.960067 0.000000 -0.000000 0.000000
-190.216174 97.426717 -292.966208 24.042731 -20.669782 -0.342753 -0.958242 11.243910 2.724313 -0.490076 4.991641 1.228114 -0.490076 4.991641 1.228114 -0.377380 3.742768 0.924514 -3.158636 13.840039 -1.093997 -5.527280 -10.465694 -0.809444 1.279592 -2.815753 4.119496 0.275347 -13.604749 77.478025 -5.627871 25.694512 -6.223427 2.827538 2.027281 -0.137562 -2.092148 -4.617067 -13.450186 2.653375 -7.292100 -76.961687 -1.236430 19.756594 1.931770 2.269962 -0.393279 -2.218224 -2.225228 24.353691 -0.442896 1.489284 -0.126446 0.909856 -6.662012 -5.229469 2.765747 0.000000 0.000000 0.000000 7.708481 25.409476 5.626468 -0.298497 -1.778440 0.845394 3.849351 -4.385633 -4.978200 0.000000 0.000000 0.000000
-190.224095 97.426266 -292.970072 23.973443 -20.542641 -0.340699 -0.939467 11.190020 2.713404 -0.481208 4.967822 1.222780 -0.481208 4.967822 1.222780 -0.370643 3.724925 0.920431 -3.100153 13.824549 -1.083038 -5.421597 -10.495416 -0.811399 1.288950 -2.798787 4.169792 0.274152 -13.559879 77.560536 -5.589299 25.734618 -6.143931 2.815537 2.029327 -0.130853 -2.073302 -4.595912 -13.441943 2.635047 -7.290419 -76.988305 -1.209448 19.745983 1.944071 2.265075 -0.392042 -2.220890 -2.151320 24.205863 -0.424880 1.523406 -0.105156 0.940512 -6.686934 -5.239161 2.749163 0.000000 0.000000 0.000000 7.697752 25.284619 5.591152 -0.259426 -1.769783 0.870393 3.881607 -4.391646 -4.995207 0.000000 -0.000000 0.000000
-190.233570 97.426346 -292.975478 23.903337 -20.416651 -0.341496 -0.921030 11.140588 2.706684 -0.472617 4.945973 1.219314 -0.472617 4.945973 1.219314 -0.364134 3.708558 0.917750 -3.044011 13.808670 -1.073948 -5.319580 -10.525850 -0.815968 1.305598 -2.784583 4.216694 0.278697 -13.510381 77.643905 -5.538287 25.779143 -6.050453 2.803230 2.030718 -0.120665 -2.048691 -4.582274 -13.437221 2.619162 -7.290259 -77.013207 -1.183778 19.747838 1.953284 2.262255 -0.387501 -2.227104 -2.073113 24.059514 -0.398913 1.552045 -0.087336 0.963933 -6.708705 -5.244327 2.736613 0.000000 0.000000 0.000000 7.685349 25.162930 5.560657 -0.219413 -1.767334 0.890448 3.916218 -4.395698 -5.010121 0.000000 0.000000 0.000000
